<svg width="149" height="150" viewBox="0 0 149 150" fill="none" xmlns="http://www.w3.org/2000/svg">
<g clip-path="url(#clip0_16_194)">
<path d="M62.112 139.645H57.051C56.9789 139.645 56.9204 139.704 56.9204 139.776V147.096C56.9204 147.169 56.9789 147.228 57.051 147.228H62.112C62.1841 147.228 62.2425 147.169 62.2425 147.096V139.776C62.2425 139.704 62.1841 139.645 62.112 139.645Z" fill="#8BD1B6"/>
<path d="M148.239 149.945H0.174927V0.456055H148.239V149.945ZM5.5673 144.51H142.857V5.90029H5.5673V144.51Z" fill="#8BD1B6"/>
<path d="M61.7304 74.709H57.4325C57.1497 74.709 56.9204 74.9405 56.9204 75.226V118.151C56.9204 118.437 57.1497 118.668 57.4325 118.668H61.7304C62.0132 118.668 62.2425 118.437 62.2425 118.151V75.226C62.2425 74.9405 62.0132 74.709 61.7304 74.709Z" fill="#8BD1B6"/>
<path d="M61.7304 2.8584H57.4325C57.1497 2.8584 56.9204 3.08989 56.9204 3.37545V60.6059C56.9204 60.8914 57.1497 61.1229 57.4325 61.1229H61.7304C62.0132 61.1229 62.2425 60.8914 62.2425 60.6059V3.37545C62.2425 3.08989 62.0132 2.8584 61.7304 2.8584Z" fill="#8BD1B6"/>
<path d="M46.8285 75.0734H42.35C42.2328 75.0734 42.1204 75.1204 42.0375 75.204C41.9547 75.2877 41.9081 75.4012 41.9081 75.5195V87.0264H29.3962C25.1486 87.0264 20.5897 89.2061 20.5897 95.9886V111.024C20.5897 117.107 25.1486 119.286 29.3159 119.286H35.4915C36.7893 119.246 38.0574 118.884 39.1835 118.231C40.3097 117.579 41.2593 116.656 41.9483 115.545V118.222C41.9483 118.34 41.9948 118.454 42.0777 118.537C42.1606 118.621 42.2729 118.668 42.3901 118.668H46.8285C46.9457 118.668 47.0581 118.621 47.141 118.537C47.2238 118.454 47.2704 118.34 47.2704 118.222V75.4789C47.2626 75.3669 47.2124 75.2622 47.1301 75.1866C47.0478 75.1111 46.9397 75.0705 46.8285 75.0734ZM35.8731 114.227H29.7778C29.2544 114.252 28.7317 114.166 28.2431 113.975C27.7545 113.784 27.3108 113.492 26.9403 113.118C26.5698 112.744 26.2807 112.296 26.0915 111.803C25.9023 111.309 25.8171 110.782 25.8415 110.253V96.3029C25.8415 93.3425 27.6891 92.0144 29.5468 92.0144H41.9483V109.138C40.4922 113.589 37.55 114.227 35.8731 114.227Z" fill="#8BD1B6"/>
<path d="M92.9398 107.272C92.8093 107.272 92.6842 107.325 92.5919 107.418C92.4996 107.511 92.4478 107.637 92.4478 107.769V110.02C92.4478 112.98 90.5901 114.298 88.7424 114.298C88.2705 114.298 82.1049 114.227 80.4882 114.227C79.9648 114.252 79.4421 114.166 78.9535 113.975C78.4649 113.784 78.0212 113.492 77.6507 113.118C77.2802 112.744 76.9911 112.296 76.8019 111.803C76.6127 111.309 76.5275 110.782 76.5518 110.253V96.3029C76.5518 93.3425 78.3995 92.0144 80.2572 92.0144C80.7191 92.0144 86.8847 92.0955 88.5115 92.0955C89.0348 92.0709 89.5575 92.1569 90.0461 92.348C90.5347 92.539 90.9784 92.8309 91.3489 93.2049C91.7194 93.579 92.0085 94.027 92.1977 94.5203C92.3869 95.0135 92.4721 95.5413 92.4478 96.0697V97.8844C92.4478 98.0162 92.4996 98.1425 92.5919 98.2357C92.6842 98.3289 92.8093 98.3812 92.9398 98.3812H97.2075C97.338 98.3812 97.4632 98.3289 97.5555 98.2357C97.6477 98.1425 97.6996 98.0162 97.6996 97.8844V95.289C97.6996 89.2061 93.1407 87.0264 88.9734 87.0264H80.0965C75.8489 87.0264 71.3 89.2061 71.3 95.9886V111.024C71.3 117.107 75.8489 119.286 80.0162 119.286H88.893C93.1407 119.286 97.6996 117.107 97.6996 110.324V107.769C97.6996 107.637 97.6477 107.511 97.5555 107.418C97.4632 107.325 97.338 107.272 97.2075 107.272H92.9398Z" fill="#8BD1B6"/>
<path d="M21.3327 131.321L21.6842 130.51C22.2173 130.905 22.8601 131.122 23.5218 131.128C24.3954 131.128 24.7569 130.814 24.7569 130.398C24.7569 129.182 21.4532 129.983 21.4532 127.894C21.4532 126.982 22.1662 126.211 23.6925 126.211C24.3448 126.204 24.9869 126.376 25.5502 126.708L25.2188 127.519C24.7531 127.241 24.2235 127.091 23.6825 127.083C22.8289 127.083 22.4775 127.418 22.4775 127.843C22.4775 129.04 25.7711 128.259 25.7711 130.317C25.7711 131.219 25.0481 131.99 23.5218 131.99C22.7396 132.012 21.9714 131.777 21.3327 131.321Z" fill="#8BD1B6"/>
<path d="M31.9467 128.289C31.9467 129.526 31.043 130.317 29.5769 130.317H28.2916V131.939H27.2874V126.322H29.5769C31.043 126.292 31.9467 127.042 31.9467 128.289ZM30.9426 128.289C30.9426 127.579 30.4706 127.174 29.5669 127.174H28.2916V129.404H29.5066C30.4405 129.404 30.9125 128.999 30.9125 128.289H30.9426Z" fill="#8BD1B6"/>
<path d="M33.1518 129.1C33.1217 128.493 33.2724 127.89 33.5846 127.371C33.8968 126.851 34.3561 126.437 34.9032 126.184C35.4504 125.93 36.0603 125.848 36.6542 125.947C37.2481 126.047 37.7989 126.324 38.2354 126.743C38.6719 127.161 38.9741 127.702 39.1031 128.296C39.2321 128.89 39.1819 129.509 38.9589 130.074C38.736 130.638 38.3507 131.123 37.8525 131.464C37.3544 131.806 36.7664 131.988 36.1643 131.989C35.7756 132.011 35.3866 131.953 35.0212 131.818C34.6557 131.682 34.3216 131.473 34.0394 131.202C33.7572 130.931 33.5328 130.605 33.3802 130.244C33.2275 129.882 33.1498 129.493 33.1518 129.1ZM38.1124 129.1C38.1124 128.699 37.9946 128.307 37.7739 127.973C37.5532 127.64 37.2396 127.38 36.8726 127.227C36.5056 127.073 36.1018 127.033 35.7122 127.111C35.3226 127.189 34.9648 127.382 34.6839 127.666C34.4031 127.95 34.2118 128.311 34.1343 128.704C34.0568 129.098 34.0966 129.505 34.2486 129.876C34.4006 130.246 34.658 130.563 34.9883 130.786C35.3185 131.009 35.7068 131.127 36.104 131.127C36.3716 131.142 36.6392 131.1 36.8894 131.003C37.1396 130.906 37.3669 130.757 37.5563 130.566C37.7458 130.375 37.8932 130.145 37.989 129.893C38.0848 129.64 38.1269 129.37 38.1124 129.1Z" fill="#8BD1B6"/>
<path d="M44.3583 131.908L43.2336 130.226H41.7675V131.858H40.7634V126.241H43.0529C44.519 126.241 45.4227 126.991 45.4227 128.269C45.4401 128.654 45.3342 129.034 45.1208 129.354C44.9074 129.673 44.5978 129.915 44.2378 130.043L45.5231 131.888L44.3583 131.908ZM42.9725 127.184H41.7675V129.425H42.9725C43.8863 129.425 44.3482 129.009 44.3482 128.299C44.3482 127.59 43.8863 127.184 42.9725 127.184Z" fill="#8BD1B6"/>
<path d="M48.0838 127.184H46.2361V126.302H50.9657V127.184H49.118V131.918H48.1139L48.0838 127.184Z" fill="#8BD1B6"/>
<path d="M54.4501 131.321L54.8016 130.51C55.3347 130.905 55.9776 131.122 56.6392 131.128C57.5128 131.128 57.8743 130.814 57.8743 130.398C57.8743 129.182 54.5706 129.983 54.5706 127.894C54.5706 126.982 55.2836 126.211 56.8099 126.211C57.4591 126.204 58.098 126.376 58.6576 126.708L58.3363 127.519C57.87 127.242 57.3407 127.092 56.7999 127.083C55.9463 127.083 55.5949 127.418 55.5949 127.843C55.5949 129.04 58.8886 128.259 58.8886 130.317C58.8886 131.219 58.1656 131.99 56.6392 131.99C55.857 132.012 55.0889 131.777 54.4501 131.321Z" fill="#8BD1B6"/>
<path d="M62.6843 129.932V131.959H61.6801V129.993L59.5011 126.343H60.6057L62.2324 129.08L63.8793 126.343H64.8834L62.6843 129.932Z" fill="#8BD1B6"/>
<path d="M65.4457 131.321L65.7972 130.51C66.3303 130.905 66.9732 131.122 67.6348 131.128C68.5084 131.128 68.87 130.814 68.87 130.398C68.87 129.182 65.5662 129.983 65.5662 127.894C65.5662 126.982 66.2792 126.211 67.8055 126.211C68.4547 126.204 69.0936 126.376 69.6532 126.708L69.3319 127.519C68.8656 127.242 68.3363 127.092 67.7955 127.083C66.9419 127.083 66.5905 127.418 66.5905 127.843C66.5905 129.04 69.8842 128.259 69.8842 130.317C69.8842 131.219 69.1612 131.99 67.6348 131.99C66.8526 132.012 66.0845 131.777 65.4457 131.321Z" fill="#8BD1B6"/>
<path d="M72.4749 127.184H70.6072V126.302H75.3268V127.184H73.4791V131.918H72.4749V127.184Z" fill="#8BD1B6"/>
<path d="M80.7693 131.037V131.909H76.6021V126.292H80.6187V127.184H77.6062V128.644H80.2873V129.506H77.6363V131.057L80.7693 131.037Z" fill="#8BD1B6"/>
<path d="M87.5375 131.908V128.198L85.7099 131.239H85.2279L83.4003 128.198V131.868H82.3961V126.251H83.2497L85.4588 129.972L87.6278 126.251H88.5416V131.868L87.5375 131.908Z" fill="#8BD1B6"/>
<path d="M90.0278 131.321L90.3893 130.51C90.9177 130.907 91.558 131.124 92.2169 131.128C93.0905 131.128 93.452 130.814 93.452 130.398C93.452 129.182 90.1483 129.983 90.1483 127.894C90.1483 126.982 90.8612 126.211 92.3876 126.211C93.0399 126.204 93.682 126.376 94.2453 126.708L93.9139 127.519C93.4482 127.241 92.9185 127.091 92.3775 127.083C91.524 127.083 91.1725 127.418 91.1725 127.843C91.1725 129.04 94.4762 128.259 94.4762 130.317C94.4762 131.219 93.7432 131.99 92.2169 131.99C91.4347 132.012 90.6665 131.777 90.0278 131.321Z" fill="#8BD1B6"/>
</g>
<defs>
<clipPath id="clip0_16_194">
<rect width="148.064" height="149.488" fill="white" transform="translate(0.174927 0.456055)"/>
</clipPath>
</defs>
</svg>
